<?xml version="1.0" encoding="UTF-8"?>
<svg width="24px" height="24px" viewBox="0 0 24 24" version="1.1" xmlns="http://www.w3.org/2000/svg" xmlns:xlink="http://www.w3.org/1999/xlink">
    <!-- Generator: Sketch 49.1 (51147) - http://www.bohemiancoding.com/sketch -->
    <title>Components / Icons / Date</title>
    <desc>Created with Sketch.</desc>
    <defs>
        <path d="M18,4 L21,4 L21,21 L3,21 L3,4 L6,4 L6,3 L7,3 L7,4 L17,4 L17,3 L18,3 L18,4 Z M18,5 L18,6 L17,6 L17,5 L7,5 L7,6 L6,6 L6,5 L4,5 L4,20 L20,20 L20,5 L18,5 Z M4,7 L20,7 L20,8 L4,8 L4,7 Z M11,10 L13,10 L13,12 L11,12 L11,10 Z M14,10 L16,10 L16,12 L14,12 L14,10 Z M17,10 L19,10 L19,12 L17,12 L17,10 Z M5,13 L7,13 L7,15 L5,15 L5,13 Z M8,13 L10,13 L10,15 L8,15 L8,13 Z M11,13 L13,13 L13,15 L11,15 L11,13 Z M5,16 L7,16 L7,18 L5,18 L5,16 Z M8,16 L10,16 L10,18 L8,18 L8,16 Z M11,16 L13,16 L13,18 L11,18 L11,16 Z M14,13 L16,13 L16,15 L14,15 L14,13 Z M17,13 L19,13 L19,15 L17,15 L17,13 Z" id="path-1"></path>
    </defs>
    <g id="Components-/-Icons-/-Date" stroke="none" stroke-width="1" fill="none" fill-rule="evenodd">
        <mask id="mask-2" fill="white">
            <use xlink:href="#path-1"></use>
        </mask>
        <use id="Combined-Shape" fill="#D8D8D8" xlink:href="#path-1"></use>
        <g id="Color-/-Cloud-Burst-/-Light" mask="url(#mask-2)" fill="#496088">
            <rect x="0" y="0" width="24" height="24"></rect>
        </g>
    </g>
</svg>